<?xml version="1.0" standalone="no"?>
<!DOCTYPE svg PUBLIC "-//W3C//DTD SVG 1.1//EN" "http://www.w3.org/Graphics/SVG/1.1/DTD/svg11.dtd">
<svg width="100%" height="100%" viewBox="0 0 300 300" version="1.1" xmlns="http://www.w3.org/2000/svg" xmlns:xlink="http://www.w3.org/1999/xlink" xml:space="preserve" style="fill-rule:evenodd;clip-rule:evenodd;stroke-linejoin:round;stroke-miterlimit:1.41421;">
    <g transform="matrix(8.33459,0,0,8.33459,-884.066,0.00341812)">
        <path d="M136.744,30.676L131.406,30.676L131.406,22.322C131.406,20.33 131.371,17.767 128.631,17.767C125.853,17.767 125.429,19.938 125.429,22.179L125.429,30.676L120.096,30.676L120.096,13.497L125.214,13.497L125.214,15.845L125.287,15.845C125.999,14.495 127.742,13.07 130.34,13.07C135.745,13.07 136.744,16.627 136.744,21.254L136.744,30.676ZM114.075,11.149C112.36,11.149 110.978,9.762 110.978,8.053C110.978,6.344 112.36,4.957 114.075,4.957C115.783,4.957 117.17,6.344 117.17,8.053C117.17,9.762 115.783,11.149 114.075,11.149ZM116.746,30.676L111.402,30.676L111.402,13.497L116.746,13.497L116.746,30.676ZM139.403,0L108.723,0C107.258,0 106.067,1.163 106.067,2.596L106.067,33.403C106.067,34.836 107.258,36 108.723,36L139.403,36C140.872,36 142.066,34.836 142.066,33.403L142.066,2.596C142.066,1.163 140.872,0 139.403,0Z" style="fill:rgb(35,31,32);fill-rule:nonzero;"/>
    </g>
</svg>
