<?xml version="1.0" standalone="no"?>
<!DOCTYPE svg PUBLIC "-//W3C//DTD SVG 1.1//EN" "http://www.w3.org/Graphics/SVG/1.1/DTD/svg11.dtd">
<svg width="100%" height="100%" viewBox="0 0 2213 2900" version="1.1" xmlns="http://www.w3.org/2000/svg" xmlns:xlink="http://www.w3.org/1999/xlink" xml:space="preserve" style="fill-rule:evenodd;clip-rule:evenodd;stroke-linejoin:round;stroke-miterlimit:1.41421;">
    <g transform="matrix(4.16667,0,0,4.16667,0,0)">
        <path d="M408.05,696L408.04,696C330.294,695.996 283.755,663.4 257.553,623.355C279.938,632.908 306.967,638.615 339.461,638.616L339.471,638.616C341.03,638.616 342.585,638.603 344.167,638.577C390.808,637.783 441.772,619.217 462.252,592.261L450.837,558.426C466.24,556.347 482.42,550.969 495.155,543.898L530.831,649.644C510.351,676.6 459.388,695.167 412.746,695.961C411.164,695.987 409.609,696 408.05,696ZM395.301,165.432L326.722,165.432L326.722,71.443L395.301,71.443L395.301,165.432ZM369.046,501.99C350.037,501.99 326.924,497.246 326.267,456.331L326.267,293.933L437.821,293.933L437.821,222.816L506.4,222.816L506.4,351.317L394.846,351.317L394.846,498.673C386.11,500.786 377.258,501.99 369.046,501.99Z" style="fill:rgb(166,164,164);fill-rule:nonzero;"/>
        <path d="M442.524,590.516C422.199,610.057 380.488,624.574 340.51,625.25C339,625.276 337.519,625.289 336.032,625.289L336.019,625.289C204.524,625.282 169.44,524.905 169.44,465.592L169.44,283.328C169.44,281.825 168.221,280.606 166.718,280.606L103.134,280.606C101.63,280.606 100.411,279.387 100.411,277.883L100.411,194.854C100.411,193.743 101.106,192.754 102.141,192.351C170.1,165.896 208.052,113.33 218.035,32.025C218.591,27.508 222.317,27.385 222.356,27.385L307.232,27.385C308.736,27.385 309.955,28.604 309.955,30.107L309.955,176.035C309.955,177.538 311.174,178.757 312.678,178.757L418.332,178.757C419.835,178.757 421.054,179.977 421.054,181.48L421.054,277.883C421.054,279.387 419.835,280.606 418.332,280.606L312.223,280.606C310.719,280.606 309.5,281.825 309.5,283.329L309.503,456.546C310.128,495.548 329.004,515.319 365.607,515.319C380.356,515.319 397.249,511.888 412.672,505.996C414.114,505.446 415.705,506.179 416.198,507.641L443.189,587.652C443.529,588.661 443.291,589.778 442.524,590.516ZM318.423,651.604C383.55,651.604 448.08,628.417 469.427,600.325L473.703,594.695L433.334,475.039C432.96,473.932 431.922,473.187 430.754,473.187L423.137,473.187L419.681,473.187L340.566,473.187C339.345,473.187 338.241,472.409 337.931,471.228C336.881,467.238 336.253,462.359 336.156,456.331L336.156,309.985C336.156,308.481 337.375,307.262 338.879,307.262L444.988,307.262C446.492,307.262 447.711,306.043 447.711,304.539L447.711,154.824C447.711,153.32 446.492,152.101 444.988,152.101L339.334,152.101C337.831,152.101 336.611,150.882 336.611,149.378L336.611,3.451C336.611,1.948 335.393,0.728 333.889,0.728L251.244,0.728L222.356,0.728L148.601,0.728C135.351,0.728 120.061,10.555 117.825,28.771C108.574,104.099 74.026,149.29 9.104,170.987L1.86,173.405C0.749,173.776 0,174.816 0,175.988L0,304.539C0,306.043 1.218,307.262 2.722,307.262L69.028,307.262C69.028,307.262 69.028,427.256 69.028,465.592C69.028,591.983 156.571,651.604 318.423,651.604Z" style="fill:rgb(68,69,69);fill-rule:nonzero;"/>
    </g>
</svg>
