<?xml version="1.0" standalone="no"?>
<!DOCTYPE svg PUBLIC "-//W3C//DTD SVG 1.1//EN" "http://www.w3.org/Graphics/SVG/1.1/DTD/svg11.dtd">
<svg width="100%" height="100%" viewBox="0 0 300 300" version="1.1" xmlns="http://www.w3.org/2000/svg" xmlns:xlink="http://www.w3.org/1999/xlink" xml:space="preserve" style="fill-rule:evenodd;clip-rule:evenodd;stroke-linejoin:round;stroke-miterlimit:1.41421;">
    <g transform="matrix(0.231145,-5.66142e-17,5.66142e-17,0.231145,7.23401,-219.943)">
        <path d="M611.029,1038.13C613.047,1038.18 617.029,1037.91 617.029,1037.91C707.192,1038.27 836.455,986.001 901.279,964.418C966.104,942.836 1020.73,943.624 1086.48,1013.77C1210.45,1146.01 1136.48,1476.37 999.015,1773.55C861.547,2070.73 617.585,2248.97 617.585,2248.97C617.585,2248.97 373.748,2071.04 236.28,1773.86C98.812,1476.67 24.848,1146.32 148.812,1014.08C214.564,943.932 269.191,943.145 334.016,964.727C397.125,985.738 521.308,1035.84 611.029,1038.13ZM617.647,1618.78C745.811,1618.78 849.864,1722.83 849.864,1850.99C849.864,1979.16 745.811,2083.21 617.647,2083.21C489.484,2083.21 385.431,1979.16 385.431,1850.99C385.431,1722.83 489.484,1618.78 617.647,1618.78Z" style="fill:black;"/>
    </g>
</svg>
