<?xml version="1.0" standalone="no"?>
<!DOCTYPE svg PUBLIC "-//W3C//DTD SVG 1.1//EN" "http://www.w3.org/Graphics/SVG/1.1/DTD/svg11.dtd">
<svg width="100%" height="100%" viewBox="0 0 1354 224" version="1.1" xmlns="http://www.w3.org/2000/svg" xmlns:xlink="http://www.w3.org/1999/xlink" xml:space="preserve" style="fill-rule:evenodd;clip-rule:evenodd;stroke-linejoin:round;stroke-miterlimit:1.41421;">
    <g transform="matrix(1.01453,0,0,1.01453,-850.877,-108.532)">
        <path d="M854.343,213.11C858.51,212.832 861.808,211.791 864.239,209.985C866.67,208.18 868.093,206.235 868.51,204.152L868.51,203.527C868.51,201.999 867.92,200.506 866.739,199.048C865.558,197.589 863.579,196.374 860.801,195.402C854.274,192.624 849.482,188.527 846.426,183.11C843.371,177.694 841.843,171.582 841.843,164.777C841.843,163.11 841.947,161.409 842.156,159.673C842.364,157.937 842.607,156.166 842.885,154.36C845.246,143.11 850.593,135.02 858.926,130.089C867.26,125.159 876.218,122.694 885.801,122.694L886.635,122.694C896.635,122.832 905.975,125.194 914.656,129.777C923.336,134.36 928.926,140.332 931.426,147.694C931.843,137.971 934.899,131.166 940.593,127.277C946.288,123.388 952.607,121.444 959.551,121.444L961.218,121.444C967.607,121.721 973.614,123.145 979.239,125.714C984.864,128.284 988.649,131.235 990.593,134.569C991.704,136.513 992.503,138.457 992.989,140.402C993.475,142.346 993.718,144.221 993.718,146.027C993.718,148.249 993.475,150.402 992.989,152.485C992.503,154.569 991.982,156.513 991.426,158.319C990.732,160.263 990.142,162.034 989.656,163.631C989.17,165.228 988.926,166.652 988.926,167.902C988.926,169.707 989.795,171.166 991.531,172.277C993.267,173.388 996.496,173.944 1001.22,173.944L1005.18,173.944L1005.18,177.069C991.288,177.207 983.614,178.457 982.156,180.819C980.697,183.18 983.996,186.374 992.051,190.402C996.079,191.791 999.517,194.256 1002.36,197.798C1005.21,201.339 1006.63,205.471 1006.63,210.194C1006.63,211.582 1006.53,212.937 1006.32,214.256C1006.11,215.576 1005.73,216.93 1005.18,218.319C1004.2,220.957 1002.99,223.77 1001.53,226.756C1000.07,229.742 998.51,232.694 996.843,235.61C991.149,244.916 983.961,253.423 975.281,261.131C966.6,268.839 957.19,272.694 947.051,272.694C944.413,272.694 941.808,272.416 939.239,271.86C936.67,271.305 934.065,270.402 931.426,269.152C930.593,272.763 929.482,276.756 928.093,281.131C926.704,285.506 925.246,289.916 923.718,294.36C922.746,296.721 921.808,299.117 920.906,301.548C920.003,303.978 919.065,306.305 918.093,308.527C917.26,310.471 916.461,312.416 915.697,314.36C914.933,316.305 914.135,318.11 913.301,319.777L910.176,319.777C909.343,317.416 908.371,314.221 907.26,310.194C906.149,306.166 904.968,301.444 903.718,296.027C902.468,290.332 901.253,283.978 900.072,276.964C898.892,269.951 897.885,262.416 897.051,254.36C896.496,253.666 895.906,252.971 895.281,252.277C894.656,251.582 893.857,250.888 892.885,250.194C891.218,248.805 889.204,247.416 886.843,246.027C884.482,244.638 882.121,243.596 879.76,242.902C878.926,242.624 878.093,242.416 877.26,242.277C876.426,242.138 875.593,242.069 874.76,242.069C871.704,242.069 868.892,243.18 866.322,245.402C863.753,247.624 861.913,251.721 860.801,257.694L857.676,257.485C857.954,255.541 858.44,252.971 859.135,249.777C859.829,246.582 860.871,243.249 862.26,239.777C864.343,234.221 867.538,229.187 871.843,224.673C876.149,220.159 882.051,217.902 889.551,217.902L892.468,217.902C893.44,217.902 894.413,218.041 895.385,218.319L895.385,167.277C895.385,159.221 894.343,151.687 892.26,144.673C890.176,137.659 886.288,133.805 880.593,133.11C879.482,132.832 878.336,132.659 877.156,132.589C875.975,132.52 874.829,132.485 873.718,132.485C869.551,132.485 865.906,133.18 862.781,134.569C859.656,135.957 858.093,138.041 858.093,140.819C857.954,143.319 859.482,146.374 862.676,149.985C865.871,153.596 871.288,157.763 878.926,162.485C881.565,164.291 883.579,166.826 884.968,170.089C886.357,173.353 887.121,176.999 887.26,181.027C887.26,182.277 887.19,183.527 887.051,184.777C886.913,186.027 886.704,187.346 886.426,188.735C884.899,194.846 881.565,200.61 876.426,206.027C871.288,211.444 863.926,214.985 854.343,216.652L854.343,213.11ZM977.468,177.069C969.829,174.846 964.413,171.756 961.218,167.798C958.024,163.839 955.871,159.707 954.76,155.402C954.343,153.18 954.031,151.027 953.822,148.944C953.614,146.86 953.51,144.846 953.51,142.902C953.232,139.569 952.815,136.687 952.26,134.256C951.704,131.826 950.246,130.332 947.885,129.777C947.468,129.638 947.051,129.534 946.635,129.464C946.218,129.395 945.871,129.36 945.593,129.36C941.288,129.36 938.475,132.103 937.156,137.589C935.836,143.076 935.038,149.082 934.76,155.61L934.76,229.569L962.676,249.36C964.204,250.471 965.767,251.305 967.364,251.86C968.961,252.416 970.593,252.694 972.26,252.694C975.732,252.694 978.822,251.721 981.531,249.777C984.239,247.832 985.593,245.332 985.593,242.277C985.593,240.194 984.864,237.937 983.406,235.506C981.947,233.076 979.413,230.61 975.801,228.11C974.413,226.999 972.711,225.714 970.697,224.256C968.683,222.798 966.565,221.166 964.343,219.36C960.732,216.305 957.433,212.902 954.447,209.152C951.461,205.402 949.968,201.582 949.968,197.694C949.968,196.721 950.072,195.784 950.281,194.881C950.489,193.978 950.801,193.041 951.218,192.069C951.635,191.374 952.086,190.61 952.572,189.777C953.058,188.944 953.579,188.11 954.135,187.277C956.079,184.777 958.683,182.451 961.947,180.298C965.211,178.145 969.274,177.069 974.135,177.069L975.801,177.069C976.357,177.069 976.913,177.138 977.468,177.277L977.468,177.069Z" style="fill:black;fill-rule:nonzero;"/>
    </g>
    <g transform="matrix(1.01453,0,0,1.01453,-854.935,-108.532)">
        <path d="M1070.8,160.61C1071.77,162.138 1073.23,163.77 1075.18,165.506C1077.12,167.242 1079.41,169.013 1082.05,170.819C1085.11,173.041 1088.55,175.159 1092.36,177.173C1096.18,179.187 1100.04,180.888 1103.93,182.277C1105.04,182.555 1106.11,182.832 1107.16,183.11C1108.2,183.388 1109.2,183.666 1110.18,183.944L1110.18,186.86L1107.47,186.86C1104.41,186.721 1102.19,187.555 1100.8,189.36C1099.41,191.166 1098.72,193.18 1098.72,195.402L1098.72,241.027C1098.72,244.916 1099.24,247.728 1100.28,249.464C1101.32,251.201 1102.95,252.069 1105.18,252.069C1106.29,252.069 1107.54,251.86 1108.93,251.444C1110.32,251.027 1111.84,250.402 1113.51,249.569L1113.51,252.485C1109.48,255.124 1105.25,258.353 1100.8,262.173C1096.36,265.992 1091.29,269.916 1085.59,273.944L1084.76,273.11C1084.62,272.971 1084.41,272.832 1084.13,272.694C1083.44,271.86 1082.68,271.131 1081.84,270.506C1081.01,269.881 1080.18,269.221 1079.34,268.527C1076.84,266.305 1074.52,263.944 1072.36,261.444C1070.21,258.944 1069.07,256.166 1068.93,253.11L1068.93,252.694C1068.93,252.555 1069,252.346 1069.13,252.069L1069.13,251.235C1066.22,252.902 1063.37,254.742 1060.59,256.756C1057.82,258.77 1055.11,260.888 1052.47,263.11C1049.97,265.055 1047.54,266.93 1045.18,268.735C1042.82,270.541 1040.45,272.277 1038.09,273.944C1034.34,271.444 1031.32,269.256 1029.03,267.381C1026.74,265.506 1024.9,263.666 1023.51,261.86C1021.98,259.777 1021.01,257.555 1020.59,255.194C1020.18,252.832 1019.97,249.846 1019.97,246.235L1019.97,197.069C1019.97,196.235 1020,195.332 1020.07,194.36C1020.14,193.388 1020.38,192.346 1020.8,191.235C1021.36,189.707 1022.43,188.145 1024.03,186.548C1025.63,184.951 1028.09,183.527 1031.43,182.277C1033.93,181.166 1036.74,179.985 1039.86,178.735C1042.99,177.485 1046.15,176.096 1049.34,174.569C1053.37,172.763 1057.26,170.714 1061.01,168.423C1064.76,166.131 1068.02,163.596 1070.8,160.819L1070.8,160.61ZM1049.55,244.36C1049.55,247.555 1050,249.951 1050.91,251.548C1051.81,253.145 1053.09,253.944 1054.76,253.944C1055.45,253.944 1056.18,253.839 1056.95,253.631C1057.71,253.423 1058.51,253.11 1059.34,252.694L1067.68,247.694L1067.68,191.86C1063.79,190.471 1060.52,188.701 1057.88,186.548C1055.25,184.395 1052.75,182.138 1050.38,179.777L1049.55,178.944L1049.55,244.36Z" style="fill:black;fill-rule:nonzero;"/>
    </g>
    <g transform="matrix(1.01453,0,0,1.01453,-856.964,-108.532)">
        <path d="M1131.63,188.527L1118.51,188.527L1118.51,185.402C1124.62,184.43 1130.49,180.853 1136.11,174.673C1141.74,168.492 1146.36,161.791 1149.97,154.569C1152.19,150.263 1154,146.096 1155.38,142.069C1156.77,138.041 1157.61,134.499 1157.88,131.444L1162.68,131.235L1162.68,173.735L1184.13,173.735L1184.13,188.527L1162.68,188.527L1162.68,237.902C1163.23,240.819 1164.17,243.11 1165.49,244.777C1166.81,246.444 1168.58,247.277 1170.8,247.277C1172.47,247.277 1174.41,246.791 1176.63,245.819C1178.86,244.846 1181.36,243.319 1184.13,241.235L1185.59,244.36C1181.01,248.11 1177.19,251.305 1174.13,253.944C1171.08,256.582 1168.23,259.082 1165.59,261.444C1165.45,261.582 1165.32,261.721 1165.18,261.86L1164.97,262.069C1162.88,263.874 1160.77,265.749 1158.61,267.694C1156.46,269.638 1154,271.721 1151.22,273.944C1149.41,270.888 1147.05,267.902 1144.13,264.985C1141.22,262.069 1138.16,259.638 1134.97,257.694C1132.61,256.166 1130.25,254.951 1127.88,254.048C1125.52,253.145 1123.44,252.694 1121.63,252.694L1121.63,249.36C1125.8,249.499 1128.51,248.735 1129.76,247.069C1131.01,245.402 1131.63,242.902 1131.63,239.569L1131.63,188.527Z" style="fill:black;fill-rule:nonzero;"/>
    </g>
    <g transform="matrix(1.01453,0,0,1.01453,-855.949,-108.532)">
        <path d="M1234.76,185.402L1261.01,160.61L1279.13,188.527L1257.68,211.652L1241.43,185.402L1234.76,190.194L1234.76,237.902C1235.18,241.096 1236.32,243.666 1238.2,245.61C1240.07,247.555 1242.54,248.527 1245.59,248.527C1248.23,248.527 1251.25,247.728 1254.66,246.131C1258.06,244.534 1261.84,241.86 1266.01,238.11L1267.68,241.027L1228.3,273.944C1226.77,272.694 1225,271.235 1222.99,269.569C1220.98,267.902 1218.79,266.096 1216.43,264.152C1212.82,261.374 1208.93,258.735 1204.76,256.235C1200.59,253.735 1196.36,252.138 1192.05,251.444C1191.77,251.444 1191.53,251.409 1191.32,251.339C1191.11,251.27 1190.87,251.235 1190.59,251.235L1190.59,247.694C1191.29,247.832 1192.05,247.867 1192.88,247.798C1193.72,247.728 1194.62,247.555 1195.59,247.277C1197.54,246.86 1199.38,245.957 1201.11,244.569C1202.85,243.18 1203.72,241.027 1203.72,238.11L1203.72,196.86C1203.72,193.11 1202.88,190.402 1201.22,188.735C1199.55,187.069 1197.61,186.235 1195.38,186.235L1194.55,186.235C1194.41,186.235 1194.2,186.305 1193.93,186.444C1192.68,186.582 1191.46,186.999 1190.28,187.694C1189.1,188.388 1188.09,189.291 1187.26,190.402L1185.59,186.86L1215.18,159.152C1220.04,161.652 1224.48,165.263 1228.51,169.985C1232.54,174.569 1234.62,179.707 1234.76,185.402Z" style="fill:black;fill-rule:nonzero;"/>
    </g>
    <g transform="matrix(1.01453,0,0,1.01453,-856.964,-108.532)">
        <path d="M1280.8,183.735L1279.13,180.402C1280.8,179.707 1282.54,178.839 1284.34,177.798C1286.15,176.756 1287.95,175.61 1289.76,174.36C1293.09,171.999 1296.39,169.43 1299.66,166.652C1302.92,163.874 1305.94,160.888 1308.72,157.694C1311.91,161.721 1315.63,165.645 1319.86,169.464C1324.1,173.284 1329.13,176.444 1334.97,178.944L1334.97,182.069L1332.68,182.069C1329.9,181.93 1327.78,182.694 1326.32,184.36C1324.86,186.027 1323.93,187.902 1323.51,189.985C1323.37,190.263 1323.3,190.61 1323.3,191.027L1323.3,239.36C1323.3,242.694 1323.93,245.367 1325.18,247.381C1326.43,249.395 1327.95,250.402 1329.76,250.402C1330.87,250.402 1331.98,250.055 1333.09,249.36C1334.2,248.666 1335.32,247.624 1336.43,246.235L1339.76,247.694C1335.32,251.305 1331.63,254.43 1328.72,257.069C1325.8,259.707 1323.02,262.069 1320.38,264.152C1318.72,265.541 1317.09,266.86 1315.49,268.11C1313.89,269.36 1312.05,270.471 1309.97,271.444C1309.83,271.582 1309.66,271.721 1309.45,271.86C1309.24,271.999 1309,272.138 1308.72,272.277C1302.19,268.388 1298.09,264.291 1296.43,259.985C1294.76,255.68 1293.93,251.096 1293.93,246.235L1293.93,188.527C1293.93,185.888 1293.48,184.048 1292.57,183.006C1291.67,181.964 1290.59,181.444 1289.34,181.444C1288.79,181.444 1288.2,181.513 1287.57,181.652C1286.95,181.791 1286.29,181.93 1285.59,182.069C1285.32,182.207 1285,182.346 1284.66,182.485C1284.31,182.624 1283.93,182.763 1283.51,182.902C1283.09,183.041 1282.64,183.214 1282.16,183.423C1281.67,183.631 1281.22,183.805 1280.8,183.944L1280.8,183.735ZM1305.38,154.152C1300.66,150.68 1297.26,147.138 1295.18,143.527C1293.09,139.916 1292.05,136.582 1292.05,133.527C1292.05,129.499 1293.55,126.235 1296.53,123.735C1299.52,121.235 1303.58,119.985 1308.72,119.985C1313.16,119.985 1316.53,121.339 1318.82,124.048C1321.11,126.756 1322.33,129.916 1322.47,133.527C1322.47,134.36 1322.4,135.194 1322.26,136.027C1322.12,136.86 1321.98,137.624 1321.84,138.319C1320.87,141.513 1319.03,144.569 1316.32,147.485C1313.61,150.402 1309.97,152.694 1305.38,154.36L1305.38,154.152Z" style="fill:black;fill-rule:nonzero;"/>
    </g>
    <g transform="matrix(1.01453,0,0,1.01453,-856.964,-108.532)">
        <path d="M1377.47,170.61L1377.47,223.11C1377.47,229.36 1379.86,234.985 1384.66,239.985C1389.45,244.985 1395.11,247.485 1401.63,247.485C1403.16,247.485 1404.69,247.346 1406.22,247.069C1407.75,246.791 1409.34,246.305 1411.01,245.61C1412.54,245.055 1414.07,244.256 1415.59,243.214C1417.12,242.173 1418.65,240.957 1420.18,239.569L1423.3,242.694C1420.94,244.082 1417.92,245.923 1414.24,248.214C1410.56,250.506 1406.7,252.971 1402.68,255.61C1401.84,256.166 1400.98,256.756 1400.07,257.381C1399.17,258.006 1398.3,258.666 1397.47,259.36C1394,261.721 1390.77,264.082 1387.78,266.444C1384.8,268.805 1382.47,270.749 1380.8,272.277C1379.55,271.166 1378.13,270.194 1376.53,269.36C1374.93,268.527 1373.3,267.624 1371.63,266.652L1369.13,265.402C1368.3,264.985 1367.47,264.499 1366.63,263.944C1361.5,261.166 1356.81,257.52 1352.57,253.006C1348.34,248.492 1346.22,241.305 1346.22,231.444C1346.22,229.082 1346.18,226.687 1346.11,224.256C1346.05,221.826 1345.94,219.36 1345.8,216.86C1345.8,216.027 1345.77,215.194 1345.7,214.36C1345.63,213.527 1345.59,212.694 1345.59,211.86C1345.59,211.027 1345.56,210.194 1345.49,209.36C1345.42,208.527 1345.38,207.694 1345.38,206.86C1345.38,200.332 1346.08,194.256 1347.47,188.631C1348.86,183.006 1351.77,178.666 1356.22,175.61L1402.05,159.152L1418.51,190.194L1392.26,203.319L1377.47,170.61Z" style="fill:black;fill-rule:nonzero;"/>
    </g>
    <g transform="matrix(1.01453,0,0,1.01453,-863.051,-108.532)">
        <path d="M1469.34,185.402L1502.26,160.61C1504.9,162.138 1507.47,163.874 1509.97,165.819C1512.47,167.763 1514.62,169.777 1516.43,171.86C1517.95,173.666 1519.17,175.402 1520.07,177.069C1520.98,178.735 1521.43,180.263 1521.43,181.652C1521.43,182.485 1521.22,183.249 1520.8,183.944C1520.38,184.638 1519.69,185.194 1518.72,185.61L1502.26,196.86C1503.79,198.249 1505.18,199.569 1506.43,200.819C1507.68,202.069 1508.79,203.319 1509.76,204.569C1511.98,207.207 1513.75,209.881 1515.07,212.589C1516.39,215.298 1517.61,218.319 1518.72,221.652C1519.13,222.624 1519.45,223.874 1519.66,225.402C1519.86,226.93 1520.11,228.527 1520.38,230.194C1520.38,230.749 1520.42,231.339 1520.49,231.964C1520.56,232.589 1520.66,233.18 1520.8,233.735C1521.22,237.485 1521.95,240.853 1522.99,243.839C1524.03,246.826 1525.94,248.319 1528.72,248.319C1529.55,248.319 1530.49,248.145 1531.53,247.798C1532.57,247.451 1533.72,246.93 1534.97,246.235L1534.97,249.36C1529.69,252.971 1525.28,256.339 1521.74,259.464C1518.2,262.589 1514.9,265.471 1511.84,268.11C1510.59,269.221 1509.31,270.228 1507.99,271.131C1506.67,272.034 1505.32,272.971 1503.93,273.944C1498.37,271.166 1494.83,267.034 1493.3,261.548C1491.77,256.062 1490.66,250.332 1489.97,244.36C1489.27,238.527 1488.23,232.971 1486.84,227.694C1485.45,222.416 1482.4,218.18 1477.68,214.985L1469.34,219.777L1469.34,241.86C1469.34,244.082 1469.66,246.166 1470.28,248.11C1470.91,250.055 1472.26,251.027 1474.34,251.027C1475.04,251.027 1475.8,250.923 1476.63,250.714C1477.47,250.506 1478.37,250.124 1479.34,249.569L1479.34,252.485C1478.79,252.902 1478.23,253.284 1477.68,253.631C1477.12,253.978 1476.57,254.36 1476.01,254.777C1471.01,257.694 1466.67,260.714 1462.99,263.839C1459.31,266.964 1456.01,270.332 1453.09,273.944C1449.76,269.221 1445.77,264.985 1441.11,261.235C1436.46,257.485 1431.7,255.194 1426.84,254.36L1426.84,251.027C1430.87,251.166 1433.79,250.61 1435.59,249.36C1437.4,248.11 1438.3,245.402 1438.3,241.235L1438.3,167.277C1438.3,165.471 1438.02,163.249 1437.47,160.61C1436.91,157.971 1436.15,155.263 1435.18,152.485C1434.48,150.263 1433.68,148.076 1432.78,145.923C1431.88,143.77 1431.01,141.791 1430.18,139.985C1429.2,138.319 1428.3,136.86 1427.47,135.61C1426.63,134.36 1425.87,133.527 1425.18,133.11L1426.84,129.569C1428.93,131.235 1430.7,133.18 1432.16,135.402C1433.61,137.624 1434.9,139.916 1436.01,142.277C1436.43,143.527 1436.84,144.742 1437.26,145.923C1437.68,147.103 1438.02,148.249 1438.3,149.36C1438.3,141.86 1441.39,136.062 1447.57,131.964C1453.75,127.867 1460.52,124.985 1467.88,123.319C1471.36,122.624 1474.73,122.103 1477.99,121.756C1481.25,121.409 1484.2,121.235 1486.84,121.235L1489.76,121.235C1490.73,121.235 1491.63,121.305 1492.47,121.444L1492.47,124.569C1485.11,124.707 1479.41,126.582 1475.38,130.194C1471.36,133.805 1469.34,138.041 1469.34,142.902L1469.34,185.402ZM1469.34,216.444L1495.59,198.527C1495.32,198.249 1495,197.902 1494.66,197.485C1494.31,197.069 1493.93,196.652 1493.51,196.235C1493.09,195.541 1492.64,194.846 1492.16,194.152C1491.67,193.457 1491.22,192.763 1490.8,192.069C1489.27,189.846 1487.61,187.798 1485.8,185.923C1484,184.048 1481.91,183.11 1479.55,183.11C1478.16,183.11 1476.63,183.527 1474.97,184.36C1473.3,185.194 1471.43,186.652 1469.34,188.735L1469.34,216.444Z" style="fill:black;fill-rule:nonzero;"/>
    </g>
    <g transform="matrix(1.01453,0,0,1.01453,-868.051,-108.532)">
        <path d="M1689.34,139.36L1717.26,121.235C1721.15,128.596 1724.9,133.631 1728.51,136.339C1732.12,139.048 1735.52,140.402 1738.72,140.402C1741.08,140.402 1743.34,139.951 1745.49,139.048C1747.64,138.145 1749.69,137.207 1751.63,136.235L1751.63,139.36C1748.58,144.916 1744.66,149.187 1739.86,152.173C1735.07,155.159 1729.83,156.721 1724.13,156.86C1719.41,156.86 1714.38,155.714 1709.03,153.423C1703.68,151.131 1698.23,147.624 1692.68,142.902C1690.87,144.152 1689.48,145.541 1688.51,147.069C1687.54,148.596 1687.05,150.263 1687.05,152.069C1687.05,153.874 1687.5,155.749 1688.41,157.694C1689.31,159.638 1690.73,161.791 1692.68,164.152C1700.32,172.624 1706.5,180.194 1711.22,186.86C1715.94,193.527 1719.13,199.985 1720.8,206.235C1721.22,207.902 1721.53,209.603 1721.74,211.339C1721.95,213.076 1722.05,214.846 1722.05,216.652C1721.63,225.263 1718.23,232.138 1711.84,237.277C1705.45,242.416 1698.37,244.985 1690.59,244.985L1689.13,244.985C1681.63,244.707 1674.62,241.582 1668.09,235.61C1661.57,229.638 1657.68,220.055 1656.43,206.86L1659.76,206.652C1660.18,208.596 1660.8,211.027 1661.63,213.944C1662.47,216.86 1663.58,219.916 1664.97,223.11C1666.08,225.471 1667.43,227.832 1669.03,230.194C1670.63,232.555 1672.47,234.638 1674.55,236.444C1675.52,237.277 1676.6,237.937 1677.78,238.423C1678.96,238.909 1680.18,239.291 1681.43,239.569C1681.7,239.569 1682.05,239.603 1682.47,239.673C1682.88,239.742 1683.3,239.777 1683.72,239.777C1685.8,239.916 1687.57,239.43 1689.03,238.319C1690.49,237.207 1691.22,235.541 1691.22,233.319C1691.22,230.819 1690.14,227.52 1687.99,223.423C1685.84,219.326 1681.91,214.36 1676.22,208.527C1669.83,201.86 1665.42,195.853 1662.99,190.506C1660.56,185.159 1659.34,180.471 1659.34,176.444C1659.34,172.555 1660.11,169.152 1661.63,166.235C1663.16,163.319 1664.83,160.819 1666.63,158.735C1667.88,157.346 1669.07,156.166 1670.18,155.194C1671.29,154.221 1672.19,153.388 1672.88,152.694L1686.01,141.027C1684.07,136.721 1681.57,133.319 1678.51,130.819C1675.45,128.319 1672.33,127.069 1669.13,127.069L1668.09,127.069C1667.82,127.069 1667.54,127.138 1667.26,127.277C1661.57,128.11 1656.29,133.596 1651.43,143.735C1646.57,153.874 1643.86,170.541 1643.3,193.735C1642.88,219.985 1647.88,238.701 1658.3,249.881C1668.72,261.062 1680.32,266.652 1693.09,266.652L1695.8,266.652C1707.75,265.957 1718.82,261.305 1729.03,252.694C1739.24,244.082 1745.11,233.18 1746.63,219.985L1749.97,219.777C1749,237.416 1741.84,250.68 1728.51,259.569C1715.18,268.457 1700.18,272.902 1683.51,272.902C1682.12,272.902 1680.73,272.867 1679.34,272.798C1677.95,272.728 1676.57,272.624 1675.18,272.485C1656.43,271.096 1639.17,263.874 1623.41,250.819C1607.64,237.763 1599.55,218.735 1599.13,193.735C1599.13,174.152 1603.89,158.562 1613.41,146.964C1622.92,135.367 1633.37,127.694 1644.76,123.944C1647.54,123.11 1650.28,122.451 1652.99,121.964C1655.7,121.478 1658.37,121.235 1661.01,121.235C1667.82,121.235 1673.82,122.763 1679.03,125.819C1684.24,128.874 1687.68,133.457 1689.34,139.569L1689.34,139.36Z" style="fill:black;fill-rule:nonzero;"/>
    </g>
    <g transform="matrix(1.01453,0,0,1.01453,-868.051,-108.532)">
        <path d="M1764.76,146.027C1767.12,136.305 1773.06,129.916 1782.57,126.86C1792.09,123.805 1802.54,121.513 1813.93,119.985L1813.93,122.902C1805.73,124.707 1800.66,127.52 1798.72,131.339C1796.77,135.159 1795.8,139.569 1795.8,144.569L1795.8,237.902C1795.8,240.957 1796.22,243.527 1797.05,245.61C1797.88,247.694 1799.9,248.805 1803.09,248.944C1804.34,248.944 1805.87,248.735 1807.68,248.319C1809.48,247.902 1811.57,247.207 1813.93,246.235L1813.93,249.36C1811.43,250.471 1808.55,252.103 1805.28,254.256C1802.02,256.409 1798.65,258.805 1795.18,261.444C1793.09,263.11 1791.08,264.777 1789.13,266.444C1787.19,268.11 1785.32,269.777 1783.51,271.444L1782.68,272.277C1781.84,271.444 1780.98,270.61 1780.07,269.777C1779.17,268.944 1778.23,268.041 1777.26,267.069C1773.79,263.735 1770.18,260.576 1766.43,257.589C1762.68,254.603 1758.86,252.485 1754.97,251.235L1754.97,247.694C1755.66,247.971 1756.36,248.18 1757.05,248.319C1757.75,248.457 1758.37,248.527 1758.93,248.527C1761.29,248.527 1762.82,247.763 1763.51,246.235C1764.2,244.707 1764.62,243.041 1764.76,241.235L1764.76,160.61C1764.76,159.082 1764.38,156.999 1763.61,154.36C1762.85,151.721 1761.84,148.944 1760.59,146.027C1759.48,143.388 1758.2,140.819 1756.74,138.319C1755.28,135.819 1753.79,133.735 1752.26,132.069L1751.63,131.444L1753.3,127.902C1753.44,128.18 1753.58,128.388 1753.72,128.527L1754.13,128.944C1756.36,131.305 1758.3,133.805 1759.97,136.444C1761.63,139.082 1763.23,142.346 1764.76,146.235L1764.76,146.027Z" style="fill:black;fill-rule:nonzero;"/>
    </g>
    <g transform="matrix(1.01453,0,0,1.01453,-868.051,-108.532)">
        <path d="M1871.22,160.61C1872.19,162.138 1873.65,163.77 1875.59,165.506C1877.54,167.242 1879.83,169.013 1882.47,170.819C1885.52,173.041 1888.96,175.159 1892.78,177.173C1896.6,179.187 1900.45,180.888 1904.34,182.277C1905.45,182.555 1906.53,182.832 1907.57,183.11C1908.61,183.388 1909.62,183.666 1910.59,183.944L1910.59,186.86L1907.88,186.86C1904.83,186.721 1902.61,187.555 1901.22,189.36C1899.83,191.166 1899.13,193.18 1899.13,195.402L1899.13,241.027C1899.13,244.916 1899.66,247.728 1900.7,249.464C1901.74,251.201 1903.37,252.069 1905.59,252.069C1906.7,252.069 1907.95,251.86 1909.34,251.444C1910.73,251.027 1912.26,250.402 1913.93,249.569L1913.93,252.485C1909.9,255.124 1905.66,258.353 1901.22,262.173C1896.77,265.992 1891.7,269.916 1886.01,273.944L1885.18,273.11C1885.04,272.971 1884.83,272.832 1884.55,272.694C1883.86,271.86 1883.09,271.131 1882.26,270.506C1881.43,269.881 1880.59,269.221 1879.76,268.527C1877.26,266.305 1874.93,263.944 1872.78,261.444C1870.63,258.944 1869.48,256.166 1869.34,253.11L1869.34,252.694C1869.34,252.555 1869.41,252.346 1869.55,252.069L1869.55,251.235C1866.63,252.902 1863.79,254.742 1861.01,256.756C1858.23,258.77 1855.52,260.888 1852.88,263.11C1850.38,265.055 1847.95,266.93 1845.59,268.735C1843.23,270.541 1840.87,272.277 1838.51,273.944C1834.76,271.444 1831.74,269.256 1829.45,267.381C1827.16,265.506 1825.32,263.666 1823.93,261.86C1822.4,259.777 1821.43,257.555 1821.01,255.194C1820.59,252.832 1820.38,249.846 1820.38,246.235L1820.38,197.069C1820.38,196.235 1820.42,195.332 1820.49,194.36C1820.56,193.388 1820.8,192.346 1821.22,191.235C1821.77,189.707 1822.85,188.145 1824.45,186.548C1826.05,184.951 1828.51,183.527 1831.84,182.277C1834.34,181.166 1837.16,179.985 1840.28,178.735C1843.41,177.485 1846.57,176.096 1849.76,174.569C1853.79,172.763 1857.68,170.714 1861.43,168.423C1865.18,166.131 1868.44,163.596 1871.22,160.819L1871.22,160.61ZM1849.97,244.36C1849.97,247.555 1850.42,249.951 1851.32,251.548C1852.23,253.145 1853.51,253.944 1855.18,253.944C1855.87,253.944 1856.6,253.839 1857.36,253.631C1858.13,253.423 1858.93,253.11 1859.76,252.694L1868.09,247.694L1868.09,191.86C1864.2,190.471 1860.94,188.701 1858.3,186.548C1855.66,184.395 1853.16,182.138 1850.8,179.777L1849.97,178.944L1849.97,244.36Z" style="fill:black;fill-rule:nonzero;"/>
    </g>
    <g transform="matrix(1.01453,0,0,1.01453,-868.051,-108.532)">
        <path d="M1963.09,185.402L1989.34,160.61L2007.47,188.527L1986.01,211.652L1969.76,185.402L1963.09,190.194L1963.09,237.902C1963.51,241.096 1964.66,243.666 1966.53,245.61C1968.41,247.555 1970.87,248.527 1973.93,248.527C1976.57,248.527 1979.59,247.728 1982.99,246.131C1986.39,244.534 1990.18,241.86 1994.34,238.11L1996.01,241.027L1956.63,273.944C1955.11,272.694 1953.34,271.235 1951.32,269.569C1949.31,267.902 1947.12,266.096 1944.76,264.152C1941.15,261.374 1937.26,258.735 1933.09,256.235C1928.93,253.735 1924.69,252.138 1920.38,251.444C1920.11,251.444 1919.86,251.409 1919.66,251.339C1919.45,251.27 1919.2,251.235 1918.93,251.235L1918.93,247.694C1919.62,247.832 1920.38,247.867 1921.22,247.798C1922.05,247.728 1922.95,247.555 1923.93,247.277C1925.87,246.86 1927.71,245.957 1929.45,244.569C1931.18,243.18 1932.05,241.027 1932.05,238.11L1932.05,196.86C1932.05,193.11 1931.22,190.402 1929.55,188.735C1927.88,187.069 1925.94,186.235 1923.72,186.235L1922.88,186.235C1922.75,186.235 1922.54,186.305 1922.26,186.444C1921.01,186.582 1919.8,186.999 1918.61,187.694C1917.43,188.388 1916.43,189.291 1915.59,190.402L1913.93,186.86L1943.51,159.152C1948.37,161.652 1952.82,165.263 1956.84,169.985C1960.87,174.569 1962.95,179.707 1963.09,185.402Z" style="fill:black;fill-rule:nonzero;"/>
    </g>
    <g transform="matrix(1.01453,0,0,1.01453,-877.182,-108.532)">
        <path d="M2053.3,185.402L2086.22,160.61C2088.86,162.138 2091.43,163.874 2093.93,165.819C2096.43,167.763 2098.58,169.777 2100.39,171.86C2101.91,173.666 2103.13,175.402 2104.03,177.069C2104.93,178.735 2105.39,180.263 2105.39,181.652C2105.39,182.485 2105.18,183.249 2104.76,183.944C2104.34,184.638 2103.65,185.194 2102.68,185.61L2086.22,196.86C2087.75,198.249 2089.14,199.569 2090.39,200.819C2091.64,202.069 2092.75,203.319 2093.72,204.569C2095.94,207.207 2097.71,209.881 2099.03,212.589C2100.35,215.298 2101.57,218.319 2102.68,221.652C2103.09,222.624 2103.41,223.874 2103.61,225.402C2103.82,226.93 2104.07,228.527 2104.34,230.194C2104.34,230.749 2104.38,231.339 2104.45,231.964C2104.52,232.589 2104.62,233.18 2104.76,233.735C2105.18,237.485 2105.91,240.853 2106.95,243.839C2107.99,246.826 2109.9,248.319 2112.68,248.319C2113.51,248.319 2114.45,248.145 2115.49,247.798C2116.53,247.451 2117.68,246.93 2118.93,246.235L2118.93,249.36C2113.65,252.971 2109.24,256.339 2105.7,259.464C2102.16,262.589 2098.86,265.471 2095.8,268.11C2094.55,269.221 2093.27,270.228 2091.95,271.131C2090.63,272.034 2089.27,272.971 2087.89,273.944C2082.33,271.166 2078.79,267.034 2077.26,261.548C2075.73,256.062 2074.62,250.332 2073.93,244.36C2073.23,238.527 2072.19,232.971 2070.8,227.694C2069.41,222.416 2066.36,218.18 2061.64,214.985L2053.3,219.777L2053.3,241.86C2053.3,244.082 2053.61,246.166 2054.24,248.11C2054.86,250.055 2056.22,251.027 2058.3,251.027C2059,251.027 2059.76,250.923 2060.59,250.714C2061.43,250.506 2062.33,250.124 2063.3,249.569L2063.3,252.485C2062.75,252.902 2062.19,253.284 2061.64,253.631C2061.08,253.978 2060.52,254.36 2059.97,254.777C2054.97,257.694 2050.63,260.714 2046.95,263.839C2043.27,266.964 2039.97,270.332 2037.05,273.944C2033.72,269.221 2029.73,264.985 2025.07,261.235C2020.42,257.485 2015.66,255.194 2010.8,254.36L2010.8,251.027C2014.83,251.166 2017.75,250.61 2019.55,249.36C2021.36,248.11 2022.26,245.402 2022.26,241.235L2022.26,167.277C2022.26,165.471 2021.98,163.249 2021.43,160.61C2020.87,157.971 2020.11,155.263 2019.13,152.485C2018.44,150.263 2017.64,148.076 2016.74,145.923C2015.84,143.77 2014.97,141.791 2014.13,139.985C2013.16,138.319 2012.26,136.86 2011.43,135.61C2010.59,134.36 2009.83,133.527 2009.13,133.11L2010.8,129.569C2012.88,131.235 2014.66,133.18 2016.11,135.402C2017.57,137.624 2018.86,139.916 2019.97,142.277C2020.38,143.527 2020.8,144.742 2021.22,145.923C2021.63,147.103 2021.98,148.249 2022.26,149.36C2022.26,141.86 2025.35,136.062 2031.53,131.964C2037.71,127.867 2044.48,124.985 2051.84,123.319C2055.32,122.624 2058.68,122.103 2061.95,121.756C2065.21,121.409 2068.16,121.235 2070.8,121.235L2073.72,121.235C2074.69,121.235 2075.59,121.305 2076.43,121.444L2076.43,124.569C2069.07,124.707 2063.37,126.582 2059.34,130.194C2055.32,133.805 2053.3,138.041 2053.3,142.902L2053.3,185.402ZM2053.3,216.444L2079.55,198.527C2079.27,198.249 2078.96,197.902 2078.61,197.485C2078.27,197.069 2077.89,196.652 2077.47,196.235C2077.05,195.541 2076.6,194.846 2076.11,194.152C2075.63,193.457 2075.18,192.763 2074.76,192.069C2073.23,189.846 2071.57,187.798 2069.76,185.923C2067.95,184.048 2065.87,183.11 2063.51,183.11C2062.12,183.11 2060.59,183.527 2058.93,184.36C2057.26,185.194 2055.39,186.652 2053.3,188.735L2053.3,216.444Z" style="fill:black;fill-rule:nonzero;"/>
    </g>
    <g transform="matrix(1.01453,0,0,1.01453,-880.225,-108.532)">
        <path d="M2174.76,159.152L2197.68,195.194L2151.84,224.777C2154.34,232.555 2157.68,238.18 2161.84,241.652C2166.01,245.124 2170.39,247.069 2174.97,247.485C2175.39,247.624 2175.73,247.694 2176.01,247.694L2177.26,247.694C2181.15,247.694 2184.9,246.826 2188.51,245.089C2192.12,243.353 2195.18,241.027 2197.68,238.11L2199.34,241.027C2197.12,243.11 2194.9,245.055 2192.68,246.86C2190.45,248.666 2188.16,250.471 2185.8,252.277C2181.22,255.749 2176.74,259.152 2172.36,262.485C2167.99,265.819 2163.86,269.082 2159.97,272.277C2147.75,268.388 2138.82,263.18 2133.2,256.652C2127.57,250.124 2123.86,243.388 2122.05,236.444C2121.64,235.055 2121.32,233.666 2121.11,232.277C2120.91,230.888 2120.73,229.499 2120.59,228.11C2120.45,226.027 2120.32,223.874 2120.18,221.652C2120.04,219.43 2119.97,217.138 2119.97,214.777L2119.97,212.069C2119.97,211.096 2120.04,210.124 2120.18,209.152C2120.45,202.207 2121.81,195.576 2124.24,189.256C2126.67,182.937 2130.94,178.388 2137.05,175.61L2174.76,159.152ZM2150.18,173.735L2150.18,219.777L2171.43,206.652L2150.18,173.735Z" style="fill:black;fill-rule:nonzero;"/>
    </g>
</svg>
