<?xml version="1.0" standalone="no"?>
<!DOCTYPE svg PUBLIC "-//W3C//DTD SVG 1.1//EN" "http://www.w3.org/Graphics/SVG/1.1/DTD/svg11.dtd">
<svg width="100%" height="100%" viewBox="0 0 1354 224" version="1.1" xmlns="http://www.w3.org/2000/svg" xmlns:xlink="http://www.w3.org/1999/xlink" xml:space="preserve" style="fill-rule:evenodd;clip-rule:evenodd;stroke-linejoin:round;stroke-miterlimit:1.41421;">
    <g transform="matrix(0.763177,0,0,0.763177,-92.6885,-86.6079)">
        <path d="M309.765,174.51C299.265,142.11 277.665,125.91 244.365,125.91C227.565,125.91 213.165,131.61 200.865,143.01C188.565,154.11 182.565,168.21 182.565,185.01C182.565,200.01 188.865,214.71 201.765,229.41L214.665,244.11C222.165,252.81 226.065,260.31 226.065,267.21C226.065,277.71 217.365,286.11 206.265,286.11C189.165,286.11 175.665,271.11 175.665,252.81C175.665,249.51 176.265,244.41 177.765,237.51L171.765,235.41C169.665,243.21 168.465,248.91 168.465,252.81C168.465,275.91 184.665,293.91 207.765,293.91C220.065,293.91 230.565,289.41 239.265,280.71C247.965,271.71 252.165,260.91 252.165,248.61C252.165,233.61 244.065,217.41 227.565,200.01C219.165,191.31 214.065,185.61 212.565,183.21C207.465,176.31 204.765,169.41 204.765,162.81C204.765,147.21 218.565,134.91 234.165,134.91C260.865,134.91 276.465,157.11 276.465,195.51L276.465,298.41C258.165,303.51 246.465,318.51 241.065,343.71L246.765,345.81C253.065,332.91 261.165,326.31 270.765,326.31C271.965,326.31 273.765,326.61 276.465,327.21L276.465,348.51C276.465,378.81 271.365,394.11 261.165,394.11C257.265,394.11 252.765,390.81 252.765,387.51C252.765,386.31 253.365,384.81 254.565,383.31C256.965,380.01 258.165,376.71 258.165,373.71C258.165,365.61 250.365,358.41 241.665,358.41C232.365,358.41 224.865,366.51 224.865,376.41C224.865,383.91 229.065,389.91 237.165,395.01C244.065,399.51 251.565,401.61 259.365,401.61C273.765,401.61 286.665,396.21 297.765,385.41C303.165,380.31 306.765,373.71 308.865,366.21C309.765,362.91 310.365,355.41 311.265,344.01C311.565,341.31 311.565,339.51 311.565,338.61C317.865,342.21 326.865,350.31 338.265,363.21C346.665,352.71 352.365,345.81 355.065,342.51L369.765,326.31C394.665,299.01 406.965,271.71 406.965,244.71C406.965,224.61 398.265,195.51 380.865,157.41C374.565,143.91 371.265,131.91 370.365,120.81L309.765,174.51ZM311.565,301.71L311.565,181.71L339.165,157.41C343.065,169.41 349.065,183.51 357.165,200.01C372.165,230.31 379.665,254.01 379.665,271.11C379.665,294.21 371.565,314.31 355.665,331.41C336.165,314.91 321.465,305.01 311.565,301.71Z" style="fill:black;fill-rule:nonzero;"/>
    </g>
    <g transform="matrix(0.763177,0,0,0.763177,-96.5044,-86.6079)">
        <path d="M496.365,322.11C497.565,331.41 501.465,339.81 507.765,347.31L519.765,361.11L553.365,322.41C554.565,320.91 555.465,320.01 555.765,319.11L551.565,315.51L541.665,325.71C535.365,321.21 531.165,314.31 529.365,305.31C528.465,301.41 528.165,293.01 528.165,280.41C528.165,262.41 528.465,251.01 529.365,246.51C531.765,233.01 537.765,224.31 547.365,221.01L547.365,215.61C528.465,209.31 509.565,196.71 491.265,178.11L487.065,181.71L476.565,191.91L461.265,205.71C434.265,230.01 420.765,253.71 420.765,276.21C420.765,289.11 424.365,303.51 431.565,319.11L451.065,361.11L496.365,322.11ZM495.165,314.61L477.465,329.91C459.765,298.41 450.765,273.21 450.765,254.91C450.765,234.51 457.365,218.61 470.265,207.21C472.065,208.41 472.965,209.31 473.265,209.61L485.265,219.51C488.565,221.91 493.065,224.91 498.165,228.51C500.565,230.31 502.365,231.51 503.565,232.41C500.265,236.61 498.165,241.11 497.265,245.91C495.165,256.71 494.265,269.91 494.265,285.51C494.265,298.41 494.565,308.01 495.165,314.61Z" style="fill:black;fill-rule:nonzero;"/>
    </g>
    <g transform="matrix(0.763177,0,0,0.763177,-96.5044,-86.6079)">
        <path d="M603.465,197.61C605.265,176.91 608.865,157.71 613.965,139.71L607.365,140.01C601.665,157.41 593.865,173.01 583.665,186.51C575.265,197.61 563.265,210.51 547.665,224.61L570.465,224.61L570.465,305.31C570.465,310.41 569.265,314.61 566.865,317.91C565.665,319.41 562.065,322.41 556.365,326.61C568.665,335.01 582.465,346.41 597.765,361.11L618.465,339.81L636.765,321.21C638.265,319.11 639.465,317.91 640.365,317.01L636.165,313.11L618.765,330.81L603.765,319.71L603.765,224.61L636.765,224.61L636.765,197.61L603.465,197.61Z" style="fill:black;fill-rule:nonzero;"/>
    </g>
    <g transform="matrix(0.763177,0,0,0.763177,-91.1622,-86.6079)">
        <path d="M691.365,228.81L702.165,215.31C708.465,224.01 714.465,233.61 719.865,244.41L742.365,209.61L719.865,176.91C718.965,179.01 717.765,180.51 716.865,182.01L706.665,198.21C705.165,200.61 701.565,206.01 695.265,214.11C692.865,217.41 691.665,219.21 691.365,219.51C690.765,210.21 688.665,203.61 685.065,199.41L677.865,191.01L666.465,176.91C656.265,191.91 644.565,206.91 631.365,221.61L635.865,225.81L644.865,215.31C653.565,219.21 658.065,227.91 658.065,241.41L658.065,300.21C658.065,313.71 654.765,319.41 643.665,326.31C658.965,334.41 673.365,345.81 686.265,361.11C687.765,359.61 689.265,358.41 690.165,357.51L706.665,341.01C716.265,331.41 724.665,323.31 732.165,316.41L728.565,312.21L708.165,330.51L691.365,316.41L691.365,228.81Z" style="fill:black;fill-rule:nonzero;"/>
    </g>
    <g transform="matrix(0.763177,0,0,0.763177,-91.1622,-86.6079)">
        <path d="M814.665,318.21L806.265,328.41C801.765,325.71 799.065,322.71 797.565,319.41C796.065,316.71 795.465,312.81 795.465,307.11L795.465,238.11C795.465,223.41 798.165,218.91 811.665,212.61C795.765,200.31 784.365,188.61 777.765,177.81L774.165,182.01C766.665,190.71 761.865,196.11 759.165,198.81L744.765,215.91L740.865,221.01L745.365,225.21L754.665,214.41L762.165,221.61L762.165,325.71C762.165,332.31 764.865,338.91 770.265,345.51C771.165,347.01 776.265,352.11 785.565,361.11L790.065,356.01C794.565,350.91 798.165,347.01 800.565,344.31L815.565,326.31C815.865,326.01 817.965,323.61 819.465,322.11L814.665,318.21ZM777.765,171.51C791.265,158.91 797.865,147.81 797.865,138.51C797.865,127.71 789.765,119.91 778.065,119.91C766.365,119.91 757.965,127.71 757.965,138.51C757.965,147.81 764.565,158.91 777.765,171.51Z" style="fill:black;fill-rule:nonzero;"/>
    </g>
    <g transform="matrix(0.763177,0,0,0.763177,-91.1622,-86.6079)">
        <path d="M911.265,208.41L885.465,176.01C873.165,183.81 861.465,192.21 850.965,200.91C841.365,209.01 835.365,214.71 833.265,218.01C829.965,223.11 828.165,230.91 827.565,241.71L826.665,258.21C825.765,272.91 825.465,286.41 825.465,299.31C825.465,307.71 827.865,315.81 832.365,323.91C833.565,326.01 838.665,333.21 847.965,345.21C853.065,351.51 856.665,357.21 859.065,362.01C866.865,353.91 875.565,345.21 884.865,336.51L907.065,315.81C910.065,313.11 911.565,311.61 911.865,311.31L907.665,306.21L881.865,329.61L877.665,325.11C867.765,314.61 861.765,304.41 860.265,295.11C859.665,292.41 859.365,280.11 859.365,258.51C859.365,253.41 859.665,241.71 860.265,224.01C860.565,215.31 860.865,207.21 861.765,199.71L884.865,228.51L911.265,208.41Z" style="fill:black;fill-rule:nonzero;"/>
    </g>
    <g transform="matrix(0.763177,0,0,0.763177,-87.3463,-86.6079)">
        <path d="M1298.57,271.11C1286.27,309.81 1260.77,329.01 1222.07,329.01C1171.96,329.01 1144.37,292.11 1144.37,227.01C1144.37,206.31 1146.77,187.41 1151.27,170.31C1158.16,144.51 1169.57,131.61 1184.87,131.61C1196.87,131.61 1205.27,137.91 1210.07,150.81L1206.16,154.71C1198.07,162.81 1192.66,169.11 1189.37,173.91C1184.57,181.41 1182.16,189.51 1182.16,197.91C1182.16,213.21 1188.46,222.81 1206.77,235.71C1223.87,247.71 1232.27,257.91 1232.27,266.61C1232.27,280.11 1221.46,290.61 1207.96,290.61C1198.96,290.61 1190.87,287.31 1183.96,281.01C1177.07,274.41 1173.77,266.61 1173.77,257.61C1173.77,253.71 1174.96,248.91 1177.07,242.91L1171.66,241.11C1169.27,248.31 1168.07,254.01 1168.07,258.21C1168.07,270.21 1172.87,279.81 1182.46,287.31C1191.16,294.21 1201.66,297.81 1213.96,297.81C1227.46,297.81 1238.87,293.61 1248.46,284.91C1258.07,276.21 1262.87,265.41 1262.87,252.21C1262.87,233.91 1253.57,218.01 1234.96,204.81L1220.27,194.31C1209.77,186.81 1204.37,179.01 1204.37,171.21C1204.37,165.51 1210.07,158.01 1221.16,148.71C1231.66,160.71 1242.77,166.71 1254.46,166.71C1272.16,166.71 1283.87,155.61 1299.16,124.71L1294.96,122.01L1293.77,123.81C1286.27,135.21 1279.07,140.91 1272.46,140.91C1263.77,140.91 1254.77,134.31 1246.07,121.41L1242.16,124.71C1237.66,128.61 1233.77,131.61 1230.46,134.31L1217.87,144.21L1213.96,147.21C1206.46,131.91 1194.46,124.11 1178.57,124.11C1154.57,124.11 1135.96,139.11 1122.77,168.81C1112.27,191.91 1107.16,216.81 1107.16,244.11C1107.16,282.21 1116.46,311.31 1135.07,331.71C1152.16,350.61 1182.46,362.31 1210.37,362.31C1258.66,362.31 1290.16,332.31 1304.87,272.61L1298.57,271.11Z" style="fill:black;fill-rule:nonzero;"/>
    </g>
    <g transform="matrix(0.763177,0,0,0.763177,-87.3463,-86.6079)">
        <path d="M1368.16,327.51L1351.66,314.61L1351.66,182.31C1351.66,147.81 1363.96,129.51 1388.87,126.81L1387.96,120.81L1381.66,120.81C1359.77,120.81 1341.46,132.21 1326.77,154.71C1320.46,143.91 1314.46,135.51 1308.46,129.51L1305.16,126.21L1299.77,130.71C1308.16,140.01 1313.57,150.21 1315.96,161.01C1317.46,168.21 1318.37,179.91 1318.37,196.11L1318.37,296.61C1318.37,305.31 1317.77,311.31 1316.27,314.61C1314.46,318.51 1310.27,323.01 1303.66,327.51C1320.46,336.21 1334.87,347.31 1347.16,361.41C1356.77,348.51 1369.37,334.11 1385.27,318.21L1388.27,315.21L1383.46,310.71L1368.16,327.51Z" style="fill:black;fill-rule:nonzero;"/>
    </g>
    <g transform="matrix(0.763177,0,0,0.763177,-87.3463,-86.6079)">
        <path d="M1460.57,322.11C1461.77,331.41 1465.66,339.81 1471.96,347.31L1483.96,361.11L1517.57,322.41C1518.77,320.91 1519.66,320.01 1519.96,319.11L1515.77,315.51L1505.87,325.71C1499.57,321.21 1495.37,314.31 1493.57,305.31C1492.66,301.41 1492.37,293.01 1492.37,280.41C1492.37,262.41 1492.66,251.01 1493.57,246.51C1495.96,233.01 1501.96,224.31 1511.57,221.01L1511.57,215.61C1492.66,209.31 1473.77,196.71 1455.46,178.11L1451.27,181.71L1440.77,191.91L1425.46,205.71C1398.46,230.01 1384.96,253.71 1384.96,276.21C1384.96,289.11 1388.57,303.51 1395.77,319.11L1415.27,361.11L1460.57,322.11ZM1459.37,314.61L1441.66,329.91C1423.96,298.41 1414.96,273.21 1414.96,254.91C1414.96,234.51 1421.57,218.61 1434.46,207.21C1436.27,208.41 1437.16,209.31 1437.46,209.61L1449.46,219.51C1452.77,221.91 1457.27,224.91 1462.37,228.51C1464.77,230.31 1466.57,231.51 1467.77,232.41C1464.46,236.61 1462.37,241.11 1461.46,245.91C1459.37,256.71 1458.46,269.91 1458.46,285.51C1458.46,298.41 1458.77,308.01 1459.37,314.61Z" style="fill:black;fill-rule:nonzero;"/>
    </g>
    <g transform="matrix(0.763177,0,0,0.763177,-83.5304,-86.6079)">
        <path d="M1568.87,228.81L1579.66,215.31C1585.97,224.01 1591.97,233.61 1597.37,244.41L1619.87,209.61L1597.37,176.91C1596.47,179.01 1595.27,180.51 1594.37,182.01L1584.16,198.21C1582.66,200.61 1579.07,206.01 1572.77,214.11C1570.37,217.41 1569.16,219.21 1568.87,219.51C1568.27,210.21 1566.16,203.61 1562.57,199.41L1555.37,191.01L1543.97,176.91C1533.77,191.91 1522.07,206.91 1508.87,221.61L1513.37,225.81L1522.37,215.31C1531.07,219.21 1535.57,227.91 1535.57,241.41L1535.57,300.21C1535.57,313.71 1532.27,319.41 1521.16,326.31C1536.47,334.41 1550.87,345.81 1563.77,361.11C1565.27,359.61 1566.77,358.41 1567.66,357.51L1584.16,341.01C1593.77,331.41 1602.16,323.31 1609.66,316.41L1606.07,312.21L1585.66,330.51L1568.87,316.41L1568.87,228.81Z" style="fill:black;fill-rule:nonzero;"/>
    </g>
    <g transform="matrix(0.763177,0,0,0.763177,-75.1355,-86.6079)">
        <path d="M1809.16,229.41L1805.27,223.11C1798.37,212.61 1793.87,205.41 1791.77,202.11L1779.77,180.81C1778.87,178.71 1777.66,176.61 1776.47,174.51C1768.66,182.31 1759.66,189.81 1749.77,197.01C1737.47,205.71 1729.66,213.81 1726.37,221.01C1723.66,227.31 1722.16,238.71 1722.16,254.61C1722.16,275.31 1722.47,289.41 1723.37,296.31C1725.16,312.51 1729.66,325.41 1736.57,334.71C1747.37,346.41 1755.47,355.41 1760.57,361.11C1773.77,349.41 1782.77,341.31 1787.27,337.11C1795.97,329.61 1803.77,322.41 1810.97,315.51L1807.07,311.01L1785.77,329.91C1774.07,324.81 1766.27,317.61 1761.77,307.71C1759.07,301.41 1756.97,290.61 1756.07,275.31C1755.77,271.41 1755.77,269.01 1755.47,268.11L1809.16,229.41ZM1754.87,260.01C1754.57,248.91 1754.27,238.41 1754.27,228.51C1754.27,218.91 1754.57,210.21 1755.47,202.41L1766.27,221.01L1776.77,238.11L1779.47,242.91L1754.87,260.01Z" style="fill:black;fill-rule:nonzero;"/>
    </g>
    <g transform="matrix(0.763177,0,0,0.763177,-94.2149,-506.59)">
        <path d="M993.506,670.218L994.406,676.218C972.506,678.318 962.464,689.483 959.764,718.283L959.142,767.375L994.284,728.187C997.103,730.603 999.847,733.349 1002.52,736.424C1005.19,739.499 1007.49,742.684 1009.42,745.979C1011.05,748.834 1012.35,751.579 1013.31,754.215C1014.27,756.851 1014.76,759.267 1014.76,761.464C1014.76,762.781 1014.53,763.989 1014.09,765.088C1013.64,766.186 1012.9,767.064 1011.86,767.723L994.284,785.515C995.916,787.711 997.399,789.798 998.735,791.775C1000.07,793.751 1001.26,795.728 1002.3,797.705C1004.67,801.878 1006.56,806.106 1007.97,810.39C1009.38,814.673 1010.68,819.45 1011.86,824.721C1012.31,826.259 1012.64,828.236 1012.87,830.652C1013.09,833.068 1013.35,835.594 1013.64,838.23C1013.64,839.108 1013.68,840.042 1013.75,841.03C1013.83,842.018 1013.94,842.952 1014.09,843.831C1014.53,849.761 1015.31,859.388 1016.43,864.11C1017.5,868.676 1019.44,871.035 1022.25,871.186L1031.79,860.718L1036.59,865.218L1033.59,868.218C1023.29,878.511 996.636,911.126 996.064,911.718C995.892,911.59 995.721,911.461 995.552,911.329L995.486,911.418C995.364,911.278 995.247,911.138 995.134,910.997C989.733,906.623 986.26,900.328 984.715,892.115C983.084,883.439 981.897,874.378 981.155,864.934C980.413,855.709 979.301,842.622 977.817,834.276C976.334,825.929 973.07,819.23 968.026,814.178L959.125,821.756L959.125,816.485L987.163,788.15C986.867,787.711 986.533,787.162 986.162,786.503C985.791,785.844 985.383,785.185 984.938,784.526C984.521,783.497 984.071,782.467 983.589,781.438L983.395,781.026C982.912,779.996 982.462,778.967 982.045,777.937C980.413,774.423 978.633,771.183 976.705,768.218C974.776,765.252 972.551,763.77 970.029,763.77C968.545,763.77 966.914,764.429 965.133,765.747C963.353,767.064 961.35,769.371 959.125,772.665L959.125,768.797L959.006,779.018L959.121,861.132L959.125,861.132C959.125,870.732 960.131,872.918 967.031,878.618C967.931,879.218 969.131,880.118 970.631,881.618C957.131,892.718 946.931,902.918 940.631,911.918C931.631,897.818 921.731,887.918 910.931,881.618C917.231,876.818 920.831,873.218 922.331,871.118C924.527,868.099 925.718,863.825 925.905,858.295L925.706,783.318C925.706,783.318 925.406,745.818 925.406,733.218C925.406,712.518 918.806,694.818 905.606,680.118L910.406,675.618L913.706,678.918C919.706,684.918 925.706,693.318 932.006,704.118C946.706,681.618 965.306,670.218 987.206,670.218L993.506,670.218Z" style="fill:black;"/>
    </g>
    <g transform="matrix(0.763177,0,0,0.763177,449.239,-506.59)">
        <path d="M993.506,670.218L994.406,676.218C972.506,678.318 962.464,689.483 959.764,718.283L959.142,767.375L994.284,728.187C997.103,730.603 999.847,733.349 1002.52,736.424C1005.19,739.499 1007.49,742.684 1009.42,745.979C1011.05,748.834 1012.35,751.579 1013.31,754.215C1014.27,756.851 1014.76,759.267 1014.76,761.464C1014.76,762.781 1014.53,763.989 1014.09,765.088C1013.64,766.186 1012.9,767.064 1011.86,767.723L994.284,785.515C995.916,787.711 997.399,789.798 998.735,791.775C1000.07,793.751 1001.26,795.728 1002.3,797.705C1004.67,801.878 1006.56,806.106 1007.97,810.39C1009.38,814.673 1010.68,819.45 1011.86,824.721C1012.31,826.259 1012.64,828.236 1012.87,830.652C1013.09,833.068 1013.35,835.594 1013.64,838.23C1013.64,839.108 1013.68,840.042 1013.75,841.03C1013.83,842.018 1013.94,842.952 1014.09,843.831C1014.53,849.761 1015.31,859.388 1016.43,864.11C1017.5,868.676 1019.44,871.035 1022.25,871.186L1031.79,860.718L1036.59,865.218L1033.59,868.218C1023.29,878.511 996.636,911.126 996.064,911.718C995.892,911.59 995.721,911.461 995.552,911.329L995.486,911.418C995.364,911.278 995.247,911.138 995.134,910.997C989.733,906.623 986.26,900.328 984.715,892.115C983.084,883.439 981.897,874.378 981.155,864.934C980.413,855.709 979.301,842.622 977.817,834.276C976.334,825.929 973.07,819.23 968.026,814.178L959.125,821.756L959.125,816.485L987.163,788.15C986.867,787.711 986.533,787.162 986.162,786.503C985.791,785.844 985.383,785.185 984.938,784.526C984.521,783.497 984.071,782.467 983.589,781.438L983.395,781.026C982.912,779.996 982.462,778.967 982.045,777.937C980.413,774.423 978.633,771.183 976.705,768.218C974.776,765.252 972.551,763.77 970.029,763.77C968.545,763.77 966.914,764.429 965.133,765.747C963.353,767.064 961.35,769.371 959.125,772.665L959.125,768.797L959.006,779.018L959.121,861.132L959.125,861.132C959.125,870.732 960.131,872.918 967.031,878.618C967.931,879.218 969.131,880.118 970.631,881.618C957.131,892.718 946.931,902.918 940.631,911.918C931.631,897.818 921.731,887.918 910.931,881.618C917.231,876.818 920.831,873.218 922.331,871.118C924.527,868.099 925.718,863.825 925.905,858.295L925.706,783.318C925.706,783.318 925.406,745.818 925.406,733.218C925.406,712.518 918.806,694.818 905.606,680.118L910.406,675.618L913.706,678.918C919.706,684.918 925.706,693.318 932.006,704.118C946.706,681.618 965.306,670.218 987.206,670.218L993.506,670.218Z" style="fill:black;"/>
    </g>
</svg>
