<svg id="Layer_1" data-name="Layer 1" xmlns="http://www.w3.org/2000/svg" viewBox="0 0 962 226"><defs><style>.cls-1{fill:#d12229;}</style></defs><title>Artboard 1</title><path class="cls-1" d="M19.11,78.21,5.86,64.71l9.25-9,8.75,8.75A24.92,24.92,0,0,1,69.11,79v77.5a25.07,25.07,0,0,1-25,25H31.61v25h6.25V219h-25v-12.5h6.25Zm37.5.75a12.23,12.23,0,0,0-12.5-12.5A12.38,12.38,0,0,0,31.61,79v90h12.5c6.25,0,12.5-6.25,12.5-12.5Z"/><path class="cls-1" d="M152.61,173.21l-9.25,9-8.75-8.75a26,26,0,0,1-20.5,10.5,25.07,25.07,0,0,1-25-25v-27.5a25.07,25.07,0,0,1,25-25h12.5v-25c0-6.25-6.25-12.5-12.5-12.5H102.86V56.46h11.25a25.07,25.07,0,0,1,25,25v78.25Zm-26-54.25h-12.5c-6.25,0-12.5,6.25-12.5,12.5V159a12.38,12.38,0,0,0,12.5,12.5,12.23,12.23,0,0,0,12.5-12.5Z"/><path class="cls-1" d="M196.36,56.46V69h-12.5v88.75c0,6.25,6.25,12.5,12.5,12.5h6.25v12.5h-6.25a25.07,25.07,0,0,1-25-25V69h-12.5V56.46h12.5V25.21h12.5V56.46Z"/><path class="cls-1" d="M248.35,56.46h8.75V69h-8.75A16,16,0,0,0,232.1,85.21V169h6.25v12.5h-25V169h6.25V78.21l-13.25-13.5,9.25-9L226.85,67A28,28,0,0,1,248.35,56.46Z"/><path class="cls-1" d="M273.85,69H267.6V56.46h18.75V169h6.25v12.5h-25V169h6.25Zm0-48.75h12.5v12.5h-12.5Z"/><path class="cls-1" d="M336.85,184a25.07,25.07,0,0,1-25-25V81.46a25.07,25.07,0,0,1,25-25h25v25h-12.5V69h-12.5c-6.25,0-12.5,6.25-12.5,12.5V159a12.23,12.23,0,0,0,12.5,12.5,12.38,12.38,0,0,0,12.5-12.5v-6.25h12.5V159A25.07,25.07,0,0,1,336.85,184Z"/><path class="cls-1" d="M391.85,181.46H373.1V169h6.25V19H373.1V6.46h18.75v99.25l25-27.25v-22h12.5v28L401.1,112.71,429.35,141v40.5h-12.5V147l-25-26.75Z"/><path class="cls-1" d="M512.34,184a25.07,25.07,0,0,1-25-25V81.46a25.07,25.07,0,0,1,25-25h25v25h-12.5V69h-12.5c-6.25,0-12.5,6.25-12.5,12.5V159a12.23,12.23,0,0,0,12.5,12.5,12.38,12.38,0,0,0,12.5-12.5v-6.25h12.5V159A25.07,25.07,0,0,1,512.34,184Z"/><path class="cls-1" d="M616.59,184a25.07,25.07,0,0,1-25-25V81.46a25.07,25.07,0,0,1,25-25h25v25h-12.5V69h-12.5c-6.25,0-12.5,6.25-12.5,12.5V159a12.23,12.23,0,0,0,12.5,12.5,12.38,12.38,0,0,0,12.5-12.5v-6.25h12.5V159A25.07,25.07,0,0,1,616.59,184Z"/><path class="cls-1" d="M670.84,6.46V157.71c0,6.25,6.25,12.5,12.5,12.5h6.25v12.5h-6.25a25.07,25.07,0,0,1-25-25V19h-6.25V6.46Z"/><path class="cls-1" d="M763.09,173.21l-9.25,9-8.75-8.75a26,26,0,0,1-20.5,10.5,25.07,25.07,0,0,1-25-25v-27.5a25.07,25.07,0,0,1,25-25h12.5v-25c0-6.25-6.25-12.5-12.5-12.5H713.34V56.46h11.25a25.07,25.07,0,0,1,25,25v78.25Zm-26-54.25h-12.5c-6.25,0-12.5,6.25-12.5,12.5V159a12.38,12.38,0,0,0,12.5,12.5,12.23,12.23,0,0,0,12.5-12.5Z"/><path class="cls-1" d="M810.09,56.46h8.75V69h-8.75a16,16,0,0,0-16.25,16.25V169h6.25v12.5h-25V169h6.25V78.21l-13.25-13.5,9.25-9L788.59,67A28,28,0,0,1,810.09,56.46Z"/><path class="cls-1" d="M845.58,181.46H826.83V169h6.25V19h-6.25V6.46h18.75v99.25l25-27.25v-22h12.5v28l-28.25,28.25L883.08,141v40.5h-12.5V147l-25-26.75Z"/><path class="cls-1" d="M928.58,184a25.07,25.07,0,0,1-25-25V79a25,25,0,0,1,50,0v52.5h-37.5V159a12.23,12.23,0,0,0,12.5,12.5,12.38,12.38,0,0,0,12.5-12.5v-6.25h12.5V159A25.07,25.07,0,0,1,928.58,184Zm12.5-105a12.38,12.38,0,0,0-12.5-12.5A12.23,12.23,0,0,0,916.08,79v40h25Z"/></svg>